 http://img14.imageshack.us/img14/2235/ffe933e5.jpg

Country.......: USA
Genre.........: Horror
Date release..: 2011 [World]
Director......: Dan Lantz
Writers.......: Dan Lantz
Duration......: 76 min.
More..........: http://www.imdb.com/title/tt1904850
Trailer.......:

Pilot :
A military weapons manufacturer creates a chemical weapon that causes victims to become blood-lusting killers. A lab accident causes the building to go into lock-down and the employees are trapped inside with the crazed killers. 

Cats :
Alexis Texas   	 ...  	Andrea
Janice Marie 	... 	Judy
Adam Danoff 	... 	Darren
Robert Heath 	... 	Bobby Lee
Sarah Dewey 	... 	Sandra
Robb Stech 	... 	Lab Tech 

Data Technical :
!!! SAMPLE !!!
Audio.....: English
Subtitles.: None
Format                           : AVI
Format/Info                      : Audio Video Interleave
File size                        : 700 MiB
Duration                         : 1h 16mn
Overall bit rate                 : 1 287 Kbps
Writing application              : VirtualDubMod 1.5.4.1 (build 2178/release)
Writing library                  : VirtualDubMod build 2178/release
Video
ID                               : 0
Format                           : MPEG-4 Visual
Format profile                   : Advanced Simple@L5
Format settings, BVOP            : Yes
Format settings, QPel            : No
Format settings, GMC             : No warppoints
Format settings, Matrix          : Custom
Codec ID                         : XVID
Codec ID/Hint                    : XviD
Duration                         : 1h 16mn
Bit rate                         : 1 169 Kbps
Width                            : 720 pixels
Height                           : 416 pixels
Display aspect ratio             : 16:9
Frame rate                       : 23.976 fps
Color space                      : YUV
Chroma subsampling               : 4:2:0
Bit depth                        : 8 bits
Scan type                        : Progressive
Bits/(Pixel*Frame)               : 0.163
Stream size                      : 636 MiB (91%)
Writing library                  : XviD 63
Audio
ID                               : 1
Format                           : MPEG Audio
Format version                   : Version 1
Format profile                   : Layer 3
Mode                             : Joint stereo
Mode extension                   : MS Stereo
Codec ID                         : 55
Codec ID/Hint                    : MP3
Duration                         : 1h 16mn
Bit rate mode                    : Variable
Bit rate                         : 106 Kbps
Nominal bit rate                 : 128 Kbps
Channel(s)                       : 2 channels
Sampling rate                    : 48.0 KHz
Stream size                      : 57.5 MiB (8%)
Alignment                        : Aligned on interleaves
Interleave, duration             : 24 ms (0.58 video frame)
Interleave, preload duration     : 174 ms
Writing library                  : LAME3.98r
Encoding settings                : -m j -V 4 -q 2 -lowpass 17 --abr 128

Screen : 
http://img204.imageshack.us/img204/5476/bloodlustzombies2011s1.jpg 
http://img857.imageshack.us/img857/5257/bloodlustzombies2011s2.jpg 
http://img17.imageshack.us/img17/4369/bloodlustzombies2011s3.jpg 
http://img4.imageshack.us/img4/9889/bloodlustzombies2011s4.jpg 
http://img543.imageshack.us/img543/7535/bloodlustzombies2011s5.jpg